/* XPM */
static char *result[] = {
/* columns rows colors chars-per-pixel */
"32 32 149 2 ",
"   c black",
".  c #000C00",
"X  c #0B0E00",
"o  c #100000",
"O  c #170F00",
"+  c #1B0E00",
"@  c #151200",
"#  c #1D1501",
"$  c #161B00",
"%  c #1B1C01",
"&  c #1D1D1D",
"*  c #231B05",
"=  c #271F0A",
"-  c #1C2100",
";  c #202204",
":  c #2B2100",
">  c #252D05",
",  c #282F04",
"<  c #26270A",
"1  c #2F270F",
"2  c #262D0D",
"3  c #292D0C",
"4  c #2B330C",
"5  c #363C03",
"6  c #2C2512",
"7  c #2E2E15",
"8  c #312911",
"9  c #342E1A",
"0  c #2F3710",
"q  c #303612",
"w  c #353D15",
"e  c #3B341C",
"r  c #36391C",
"t  c #202020",
"y  c #2C2C2C",
"u  c #352F20",
"i  c #353222",
"p  c #3C3623",
"a  c #3F3924",
"s  c #37332B",
"d  c #3D392A",
"f  c #323232",
"g  c #3C3831",
"h  c #3C3C3C",
"j  c #433C25",
"k  c #443E2A",
"l  c #3F4211",
"z  c #384018",
"x  c #3F4820",
"c  c #414623",
"v  c #45422B",
"b  c #49422A",
"n  c #464D28",
"m  c #4B522B",
"M  c #454035",
"N  c #4D4633",
"B  c #534C35",
"V  c #534D3C",
"C  c #515631",
"Z  c #535B32",
"A  c #57503C",
"S  c #5A533C",
"D  c #59583A",
"F  c #5A6135",
"G  c #64663C",
"H  c #626A3D",
"J  c #464646",
"K  c #4C4C4C",
"L  c #5F5842",
"P  c #5C5A57",
"I  c #595958",
"U  c #635B44",
"Y  c #635C4B",
"T  c #686A47",
"R  c #69624B",
"E  c #6B7445",
"W  c #757443",
"Q  c #797C46",
"!  c #6B6551",
"~  c #6F6855",
"^  c #736B54",
"/  c #736D5A",
"(  c #777A54",
")  c #77705A",
"_  c #7C755E",
"`  c #716E6A",
"'  c #7B7562",
"]  c #78756D",
"[  c #7A7A78",
"{  c #857D67",
"}  c #827C69",
"|  c #8C8F51",
" . c #82865A",
".. c #979754",
"X. c #9A9B56",
"o. c #8A826C",
"O. c #999A65",
"+. c #83817E",
"@. c #8F897A",
"#. c #938B74",
"$. c #948D7A",
"%. c #9A9A72",
"&. c #9A927B",
"*. c #858584",
"=. c #898785",
"-. c #8D8A83",
";. c #8B8B8A",
":. c #989584",
">. c #91918E",
",. c #99958D",
"<. c #9B9B9A",
"1. c #A59E86",
"2. c #A6A08C",
"3. c #A9A18A",
"4. c #AFA791",
"5. c #A3A29F",
"6. c #A9A69E",
"7. c #B2AA94",
"8. c #B7B099",
"9. c #BCB49D",
"0. c #A4A4A3",
"q. c #ADAAA4",
"w. c #AFADAB",
"e. c #B3AFA6",
"r. c #BFB8A2",
"t. c #B7B4A9",
"y. c #B6B5B4",
"u. c #BDBDBC",
"i. c #C0B89F",
"p. c #C3BCA4",
"a. c #CBC3AC",
"s. c #CBC7BC",
"d. c #D1C9B2",
"f. c #DBD3BB",
"g. c #C3C3C2",
"h. c #CDCAC1",
"j. c #CBCBC9",
"k. c #DCD7C9",
"l. c #D4D4D3",
"z. c #D8D7D7",
"x. c #E2DED4",
"c. c #E8E0C9",
"v. c #ECE6D2",
"b. c #EFEADD",
"n. c #E1E0E0",
"m. c #F0EFEC",
"M. c #F5F3EC",
"N. c gray97",
"B. c #F8F8F8",
/* pixels */
"J J J J J y t t h h h h h J J J h h [ L g.b.*.;.y y f h h h h h ",
"J J J J J y t t h h h h h J J J u.W ( F G :.j.g.q.y f h h h h h ",
"J J J J J y t t h h h h h h J g.X.w F z z z H j.v.,.f h h h h h ",
"J J J J J y t t h h h h h J J D n z F 4 z z z H u.c.-.h h h h h ",
"J J J J J y & t h h h h h J 0.F z z w w z z z z l k.2.n.h h h h ",
"J h h h J y t t f f f h h J >.F z z 3 3 0 w z z n ' p.w.f f f f ",
"h h h h h y t t y y y h h h 5 z z 2 4 z z 4 z z z C 8.) y y y y ",
"h h h h h y t t y y f h h h > z w - w w z w 4 z z x ' 7.*.y y y ",
"& t t t t t t t t t t t t t - z w - z z z z 4 w z z e 7.=.t t t ",
"& t t t & & t t t t t t t t $ z w - z z z z w w z z r &.) t t t ",
"y y y y y y y y y f f f f f ;.( z - q z w z w w T m z R U y y y ",
"J J J J J J J J I I I I I I q.x > < 4 z z z z > z 0 w R S J J J ",
"J J J J J J J J I I I I I y y., w < 4 z z w z > z w w ! S J J J ",
"h J J h h J J J J J J K K f y % z < > w z z z 4 z z > V j h J k ",
"h h h h h J J J h h h J J J f <.w z r > z z w 4 z z > B 8 h h h ",
"h h h h h J J J h h h J J J f n.i w 0 n c z w w z w % V *.h h h ",
"y y y f y y y y h h h h h f y & ! r z r 7 3 w z z w # e ;.h h h ",
"f y y y y y y y h h h h h f y y t . z z z z w z z - j   h h h h ",
"y y y t y y y y f f f f f y y y t u.- z w Z n z 4 6 9 s.f f f f ",
"t & t t t t t t t t t t t t t t t t g.2 w w ; 3 - S s t t t t t ",
"t & & t t t t t t t t t t t t t t t <.:.% @ % X * 8 g t t t t t ",
"h h h h h z.z.z./ / L Y N N N N M r 6 ! R o.U 7.' / ^ g.J J J J ",
"J J J ] ` f.9.8.~ N g M v j a N N e B L U V i ' N k u u.I I I I ",
"J g.t.4.@.n z , H C z E E Z ( %. .E Q ..m p b ! j 9 ^ $.@.0.I I ",
"I o.v.d - x q F C ; ; % % - % $ - C X.G O.| c L { 9 j U R ^ q.J ",
"` r.d.m.e.P I s @ @ + O O O O O + + 6 e a N U S S ) 1 b S 9 e J ",
"P :.k.p.a.M.v.p.z.z.z.a.a.7.4.4.$.#.o.U N j 1 9 A &.: j k p o J ",
"1.2.f.B.B.h.s.p.d.i.i.1.1.o.o.U U N S b e 1 8 8 j ) K * * 1 y.h.",
"&.3.m.B.B.c.k.&.f.9.9.3.1.#.{ R R R B b j 8 8 8 e U 9 * 5.h h h ",
"n.e ` a.N.c.a.&.x.7.3.3.1.3.{ { R R B b b e 8 * * 6 M <.h h h h ",
"h l.u.#     R / 6.} { ' _ ' U U N N j 9 =     + u.j.f h h h h h ",
"h h h h h y *.+.+.+.+.+.+.+.+.+.+.+.+.+.+.y t t y y f h g h h h "
};
