/* XPM */
static char *result[] = {
/* columns rows colors chars-per-pixel */
"32 32 28 1 ",
"  c #081018",
". c #202020",
"X c gray16",
"o c #2C2C2C",
"O c #2D2D2D",
"+ c #323232",
"@ c gray20",
"# c #353535",
"$ c #373737",
"% c #3A3A3A",
"& c #3C3C3C",
"* c #3F3F3F",
"= c #503000",
"- c #304038",
"; c #484828",
": c #434343",
"> c #464646",
", c gray31",
"< c #585858",
"1 c #586860",
"2 c #886828",
"3 c #C05018",
"4 c #B89858",
"5 c #808060",
"6 c #90A098",
"7 c #F0D090",
"8 c #C8C8A8",
"9 c #F8F8F8",
/* pixels */
">>>>>o..&&&&&:>>&&*>>o..OO+&&&&&",
">>>>>o..&&&&&:>>&&*>>o..OO+&&&&&",
">>>>>o..&&;;;:>>&&*>  ..OO+&&&&&",
">>>>>o..&;988  >&&  96 .OO+&&&&&",
">>>>>o;;& 8; 61 & 1661 .OO+&&&&&",
"****;;88  ; 691- 1611-- $$#+++++",
"&&&;988;3 ; 961- 111--  &&$OOOOO",
"&&& 5553;  6911-- 1---  &&$OOOOO",
".... 335 ; 961--- -==== ........",
"..;;;   ; -961---  7242====.....",
"o;888 o ; 1611--   7=2=424 ooooo",
";888;3 >  -61--   -7=2=2=2 >>>>>",
";985;3    6---- 1-  7= 2 =2 >>>>",
" 5553; ;5 196611    7=744 2 ****",
"& 33;   ; 111-      7=42244 &&&&",
"&    ;;   11-- ===== 7=42222 &&&",
"OOO   5;=======77777 7=      &&&",
"O=======777777744447 4=2=2=2 &&&",
"=777777744444444====  4=2=2=2 @@",
"=7444444=22=====2=42= 4 2=2=2 ..",
"==22====224 224 4244= 4 2=2=2 ..",
"% 422 =4244 424 4447= 4 2 2 2 >>",
"> 442 =4444 4244 427== 4 74444 <",
"> 742 =44424 424 424== 4 42222 <",
"< 7444 =4424 4=2 2=2== 4 422   >",
"<< 744 =2422===2===22= 4    2=2 ",
",===22===2277777777922= 4 2=2=2 ",
"&=77777777744442244722= 4 2=2= &",
"& 7444244224222======   4 2   &&",
"                               &",
"&&&&&X..OOOOO$&&OO#>>o..OO+&&&&&",
"&&&&&X..OOOOO$&&OO#>>o..OO+&&&&&"
};
