/* XPM */
static char *result[] = {
/* columns rows colors chars-per-pixel */
"32 32 178 2 ",
"   c #090701",
".  c #0C0C03",
"X  c #0E0E09",
"o  c #141102",
"O  c #1B1403",
"+  c #1A1804",
"@  c #14140D",
"#  c #1E1B0E",
"$  c #151512",
"%  c #1A1A15",
"&  c #1C1C1B",
"*  c #270500",
"=  c #360400",
"-  c #271101",
";  c #211B04",
":  c #291709",
">  c #321B01",
",  c #231E19",
"<  c #321E18",
"1  c #262005",
"2  c #2D2607",
"3  c #26220B",
"4  c #3F2101",
"5  c #352C07",
"6  c #32290C",
"7  c #3A320C",
"8  c #292715",
"9  c #22221D",
"0  c #29271A",
"q  c #312C11",
"w  c #332D1E",
"e  c #383417",
"r  c #38341A",
"t  c #212121",
"y  c #2C2C2C",
"u  c #342925",
"i  c #3A2E2B",
"p  c #363123",
"a  c #3A3723",
"s  c #333333",
"d  c #3B3535",
"f  c #3D3837",
"g  c #3C3C3C",
"h  c #450000",
"j  c #460D00",
"k  c #5B0200",
"l  c #510B00",
"z  c #451B01",
"x  c #571F00",
"c  c #670B00",
"v  c #710000",
"b  c #7D0700",
"n  c #711400",
"m  c #462B05",
"M  c #502601",
"N  c #5A2401",
"B  c #542C02",
"V  c #5F3606",
"C  c #583408",
"Z  c #55390E",
"A  c #482A14",
"S  c #582C13",
"D  c #433B13",
"F  c #423D1D",
"G  c #712B01",
"H  c #782E00",
"J  c #643805",
"K  c #693B08",
"L  c #432D21",
"P  c #483124",
"I  c #473228",
"U  c #503A2D",
"Y  c #413431",
"T  c #46401F",
"R  c #4C4319",
"E  c #5C471B",
"W  c #51491F",
"Q  c #674213",
"!  c #6A4115",
"~  c #634C1D",
"^  c #724510",
"/  c #794110",
"(  c #794B13",
")  c #70511D",
"_  c #524C24",
"`  c #595128",
"'  c #4E4532",
"]  c #5A5632",
"[  c #675228",
"{  c #635C2C",
"}  c #775A29",
"|  c #68602E",
" . c #7B622D",
".. c #666034",
"X. c #6C6432",
"o. c #7E6733",
"O. c #726936",
"+. c #7A723D",
"@. c #464646",
"#. c #504F4F",
"$. c gray34",
"%. c #585858",
"&. c #6F6645",
"*. c #797343",
"=. c #850800",
"-. c #832000",
";. c #942700",
":. c #8A3200",
">. c #913000",
",. c #993300",
"<. c #9F3800",
"1. c #A33700",
"2. c #AB3C00",
"3. c #B13A00",
"4. c #82531B",
"5. c #9E6610",
"6. c #9B6917",
"7. c #A36A12",
"8. c #8B6026",
"9. c #976626",
"0. c #996A2B",
"q. c #8E7625",
"w. c #8D6E36",
"e. c #937336",
"r. c #9B7436",
"t. c #9C7A3C",
"y. c #A47534",
"u. c #A77835",
"i. c #A47939",
"p. c #87614E",
"a. c #816B4D",
"s. c #916D40",
"d. c #867E46",
"f. c #86764C",
"g. c #9C7D4E",
"h. c #8F7E67",
"j. c #B98A1F",
"k. c #BB9F28",
"l. c #A3843C",
"z. c #C8851B",
"x. c #C79724",
"c. c #CFA62C",
"v. c #E8AF2F",
"b. c #898153",
"n. c #928A51",
"m. c #999157",
"M. c #9C965C",
"N. c #AF8E47",
"B. c #B98742",
"V. c #BB8C46",
"C. c #BC924B",
"Z. c #A1985C",
"A. c #9D8E6E",
"S. c #A59D64",
"D. c #AAA263",
"F. c #B4AC6B",
"G. c #BBB372",
"H. c #C7964F",
"J. c #CAA95E",
"K. c #D6A85D",
"L. c #D7B063",
"P. c #DCB466",
"I. c #DEBE6D",
"U. c #CBB979",
"Y. c #DEC676",
"T. c #E9C978",
"R. c #ACA185",
"E. c #BBB386",
"W. c #BDBA9A",
"Q. c #C3BC81",
"!. c #C7C087",
"~. c #D1CC9A",
"^. c #F0DA84",
"/. c #EAD098",
"(. c #CEC7B4",
"). c #FDF1A5",
"_. c #DCD7C5",
"`. c #FDFEEF",
/* pixels */
"@.@.@.@.@.y t t g g g g g @.@.@.g g g @.@.y t & y y s g g g g g ",
"@.@.@.@.@.s t t g g s i f g @.@.g g g @.@.y t t s y s g g g g g ",
"@.@.@.@.@.y & t g i q.k.} P P I L s @.@.@.y & t y y s g g g g g ",
"@.@.@.@.@.y t t g < c.v.k.k.k.x.x.6.S U @.y t t y y s g g g g g ",
"@.@.@.@.@.y t t d K 6.K [ f.a.l.k.c.v.5.i y t t y y s g g g g g ",
"g @.g g g y t t u ( S a._.`.`.(.f.q.j.z.( u & t s g s s y s s s ",
"g g g g g t t t y y A s.&.p.f.A.Q.S. .5.7.< , t g g s y y y y y ",
"g g g g g y t t u ] F.L.4.r.K.r.C C o. .> < & & % a d Y y y y y ",
"t t t t t t t t , h.g.y.H.T.^.P.9.0.r.j = . O ; R m.S.W.X t t t ",
"t t t t t t t t t , : 8.H.P.P.C.4.Z S b ;.N ; 2 D X.+.M.X & & t ",
"y y y y y y y y s i < A.E.t.B.u.m = =.,.1.1.H O + R D 8 y y y y ",
"@.@.@.@.@.@.@.@.$.$.s ' ` w.0.B > x H J ^ / >.-.4 ` { 8 g @.@.@.",
"@.@.@.@.@.@.@.@.$.%.Y e.C.4.M O l n ) U./.J./ n >.+ +.+.% @.@.@.",
"g g @.g g @.@.@.@.@.g P M z } [ * z N.).).^.i.N 2.G e b.*.y g g ",
"g g g g g @.@.@.g g g I c l R.R.z C y.P.^.J.( N 3.>.o X.n.$ g g ",
"g g g g g @.@.@.s f f P H c p.E.o.M 9.H.H.0.^ j =.<.z 2 D $ g g ",
"y y y y y y y 9 X , : 8.8.N j C ) ( 9.V.H.8.N c =.3.,.+ ] % g g ",
"y y y y y y 9 *...q o ; Q V 4 J y.L.Y.I.V.K l b =.:.- $ 0 s g g ",
"y y y y y 3 +.W 6 O F ~ Q ~ { w.J.T.K.L.t.k v k h   $ s s s s s ",
"t t t $ e _ D 5 o - t.I.P.l.[ D E r.y.Q * h = q ] r e % & t 9 9 ",
"t t $ F R 5 5 + } C K H.L.K.V.~ + > m D ..d.b.d.X.O.{ X t t t t ",
"y p _ D 5 2 @ : A ! B K u.V.8.5 q e ` F.F.G.Z.d.n.X._ t @.@.@.@.",
". &._ 5 ; % & t g w m ~ E Z W T + F Z.G.G.S.O.O.O.R t $.%.%.$.$.",
"s @ q ; s y t & g p +.F.n.` 7 1   ] ~.~.D.b.{ R R & g %.%.%.$.$.",
"%.#.#.#.$.s t t g 9 *.U.n.X.R 5 o ] Q.!.D.Z.n.{ W $ s @.@.@.@.@.",
"%.%.$.$.$.s t & g y T *.M.b.| D o 8 O.m.Z.b.b.m.O.r & @.@.@.@.@.",
"#.#.#.#.#.y t t g s y y r F q o   & y p W ] F F e + # s @.@.@.@.",
"g g g g g y & t y y y y & o 1 1 + & s @.d 8 . + 1 5 5 ; t g g g ",
"g g g g g y & & s y y 0 _ W 7 1 o & s @.@.y $ e | e 7 + @ g g g ",
"g g g g g y t t t t w *.b.| D 5 5 + 9 @.@.& q d.n.` W 5 2 $ g g ",
"g g g g g y t t $ + q e e 1 + + + o t @.g . 2 e q + + + + @ g g ",
"g g g g g y & t y y t y t y s s y t s @.@.t & & t y y s s s g g "
};
