/* XPM */
static char *result[] = {
/* columns rows colors chars-per-pixel */
"32 32 191 2 ",
"   c #0F0F08",
".  c #131106",
"X  c #14140C",
"o  c #191709",
"O  c #18170A",
"+  c #1C1A0B",
"@  c #161612",
"#  c #1A1A14",
"$  c #1D1D1B",
"%  c #2C0D01",
"&  c #390C03",
"*  c #271702",
"=  c #221D0B",
"-  c #2D190B",
";  c #331B08",
":  c #2D1D17",
">  c #241D1C",
",  c #2A1F1A",
"<  c #1F2011",
"1  c #26220C",
"2  c #2B250D",
"3  c #36260C",
"4  c #352D0F",
"5  c #242215",
"6  c #2A2411",
"7  c #2E2913",
"8  c #24231C",
"9  c #2D2B1C",
"0  c #332314",
"q  c #352F12",
"w  c #33261A",
"e  c #363116",
"r  c #3B3212",
"t  c #343119",
"y  c #3A361D",
"u  c #3C391E",
"i  c #212121",
"p  c #282826",
"a  c #2C2C2C",
"s  c #342C25",
"d  c #352C27",
"f  c #3B3927",
"g  c #333333",
"h  c #3C3C3C",
"j  c #470502",
"k  c #5C0801",
"l  c #461500",
"z  c #4B1600",
"x  c #521301",
"c  c #670700",
"v  c #760100",
"b  c #691900",
"n  c #781800",
"m  c #422403",
"M  c #4A2707",
"N  c #432C0E",
"B  c #5A2402",
"V  c #572C06",
"C  c #49320E",
"Z  c #57330C",
"A  c #482C15",
"S  c #5D2E17",
"D  c #423A17",
"F  c #443C1A",
"G  c #543617",
"H  c #563B14",
"J  c #5D3A12",
"K  c #652903",
"L  c #702F06",
"P  c #633909",
"I  c #773203",
"U  c #653D11",
"Y  c #6A3F11",
"T  c #463124",
"R  c #433E22",
"E  c #483429",
"W  c #433A37",
"Q  c #4A421D",
"!  c #674419",
"~  c #69451A",
"^  c #774A17",
"/  c #74471C",
"(  c #4D4622",
")  c #484327",
"_  c #534B24",
"`  c #5B4921",
"'  c #534D2B",
"]  c #5A532A",
"[  c #43433F",
"{  c #5B4631",
"}  c #575433",
"|  c #5D5937",
" . c #644D26",
".. c #675427",
"X. c #67562C",
"o. c #7E5523",
"O. c #745925",
"+. c #645D31",
"@. c #745C32",
"#. c #6C6435",
"$. c #6B663C",
"%. c #7C6432",
"&. c #756A39",
"*. c #7A723F",
"=. c #454545",
"-. c #4D4D4D",
";. c #585858",
":. c #6C6740",
">. c #75684A",
",. c #7A7344",
"<. c #7E794D",
"1. c #880F00",
"2. c #822501",
"3. c #932B01",
"4. c #8B3502",
"5. c #923401",
"6. c #9D3801",
"7. c #A23B00",
"8. c #AC3B00",
"9. c #B34200",
"0. c #9B6416",
"q. c #A26A19",
"w. c #865B25",
"e. c #8B612B",
"r. c #95672C",
"t. c #996A2E",
"y. c #85702D",
"u. c #8E742F",
"i. c #966C33",
"p. c #9A743A",
"a. c #98763B",
"s. c #A57638",
"d. c #A47639",
"f. c #886A4C",
"g. c #906D42",
"h. c #827A46",
"j. c #847C49",
"k. c #9C7B49",
"l. c #836E51",
"z. c #8A7756",
"x. c #A47F42",
"c. c #8E7E67",
"v. c #9F863C",
"b. c #B88924",
"n. c #B99E2D",
"m. c #C78421",
"M. c #C69629",
"N. c #CEA530",
"B. c #E7AE32",
"V. c #89814B",
"C. c #868352",
"Z. c #8E8751",
"A. c #928A52",
"S. c #999157",
"D. c #969059",
"F. c #9D965D",
"G. c #AE8D49",
"H. c #B88644",
"J. c #B98C4A",
"K. c #BC924D",
"L. c #A0955C",
"P. c #A0985D",
"I. c #9E8F69",
"U. c #9A8B73",
"Y. c #A49C64",
"T. c #B3AB6C",
"R. c #BBB372",
"E. c #C4934E",
"W. c #C79852",
"Q. c #C9A85F",
"!. c #D5A75D",
"~. c #D6AD62",
"^. c #D8AF62",
"/. c #CFB16E",
"(. c #DAB266",
"). c #DBB86A",
"_. c #DDC575",
"`. c #E8C877",
"'. c #A99F85",
"]. c #B8AF83",
"[. c #BCB790",
"{. c #C3BC83",
"}. c #CFC993",
"|. c #D1CC9E",
" X c #EED983",
".X c #F1D984",
"XX c #E9CF97",
"oX c #CDC6B3",
"OX c #FDF1A4",
"+X c #DBD6C4",
"@X c #FDFEEF",
/* pixels */
"=.=.=.=.=.a i i h h h h h [ =.=.W h W =.=.a 8 > a a g h h h h h ",
"=.=.=.=.=.g i i h h h h h [ =.=.h h h =.W s i i a a g h h h h h ",
"=.=.=.=.=.a i i h h h h h =.W T T E T O.n.u.: i a a g h h h h h ",
"=.=.=.=.=.a i $ h h h W E S r.M.n.n.n.M.B.n.- i a a g h h h h h ",
"=.=.=.=.=.a i i h h h d 0.B.N.n.v.l.l.X.P q.Y , a a g h h h h h ",
"h =.h [ h a i i g g d / m.b.y.z.oX@X@X+X>.V ^ , g h g g a g g g ",
"h h h h h p $ i a a w q.0.@.L.{.I.g.l.>.g.0 > i h h g a a a a a ",
"h h h g [ f f # p a 0 m &.e.Z G p.!.a.o.^.Q.{ > h h h a a a a a ",
"i i i X [.Y.D.( 1 = X & z i.r.r.)..X`.E.x.k.c.> i i $ i i i i i ",
"$ i i X D.,.$.F q 1 V 3.n S G w.J.~.(.W.w.; > i i i i i i $ i $ ",
"a a a p 9 F Q 5 * I 7.7.6.n & C s.H.k.].U.: a g a a a a a a a a ",
"=.=.=.h 9 +.] 3 2.3.^ ^ P I K 3 Z t.i.+.E g ;.;.=.=.=.=.=.=.=.=.",
"=.=.=.$ h.*.< 4.n / Q.XX/.O.b x * M w.J.i.E ;.;.=.=.=.=.=.=.=.=.",
"=.h p <.V.y L 9.B d. XOXOXG.M % X.@.l V G [ -.-.=.=.=.h h =.=.h ",
"h h @ Z.#.O 5.8.B / Q. X).s.Z m '.'.x b d =.=.=.=.=.=.h h h h h ",
"h h # R 7 M 6.1.z / t.W.J.r.Z %.[.f.b L E h =.h =.=.h h h h h h ",
"a a @ | < 5.9.1.c B e.E.J.r.^ O.H z B w.e.- < @ a h h h h h h h ",
"a a a 8 @ - 4.1.v x ! K.)._.~.s.U 3 U ~ - o t #.,.a h h h h h h ",
"p a a p p @ . j k v k k.~.!.`.Q.y.+. .!  .R * 4 _ ,.9 a g g a g ",
"i i i < $ t u | t & j % ! d.p.` F ..x.(.).a.* o e r _ y $ i < i ",
"$ $ i i @ | &.#.j.C.C.#.D N 3 1  .J.!.^.J.Y J @.= 4 r Q ) # i i ",
"h h h h < ' $.Z.h.F.R.T.T.] e e q e.J.d.Y V ! A 6 5 4 r F ' f h ",
"=.=.=.=.=.@ ( &.&.#.Y.R.R.F.) 1 F ` H `  .C 3 i =.=.a 2 r ' :.X ",
"=.=.=.=.=.p + F ( #.j.Y.|.}.} . 7 D ] A.T.,.w 8 =.=.-.h 5 t # =.",
";.;.;.;.;.g # _ #.Z.F.T.{.{.} o r ( #.A.R.<.@ i a a g =.[ [ h =.",
";.;.;.;.;.$ f #.S.j.j.P.S.$.9 o F +.V.F.,.R @ i a a g =.=.=.=.=.",
"-.-.-.-.h 1 = u R R | ' s g 8   o e ) f g i $ i a a g =.=.[ =.=.",
"h h h p 6 4 r 2 1 . i p a g p + 2 2 = a =.a i i a a g h h h h h ",
"h h g # + r D #.u 8 a a a g p O 2 r _ ' g a > i a a g h h h h h ",
"h h $ 4 e _ ] A.,.t 8 a a p 1 r 4 Q +.j.,.t 8 $ a a a h h h h h ",
"h h # # 1 + 1 t y 6 X i a p O = = = 7 y s t X @ a a g h h h h h ",
"h h g g g p # # p p p a a g g g p a a h h p $ i g a a h h h h h "
};
